<svg width="56" height="64" viewBox="0 0 56 64" fill="none" xmlns="http://www.w3.org/2000/svg">
<g opacity="0.4" filter="url(#filter0_ddd_1003_1186)">
<circle cx="28" cy="21" r="19" fill="#FDFEFF"/>
</g>
<path d="M31.8527 14.1992C30.3298 14.1992 28.9668 14.9291 28.117 16.0487C27.2672 14.9291 25.9041 14.1992 24.3812 14.1992C21.7982 14.1992 19.7031 16.2726 19.7031 18.8354C19.7031 19.8223 19.863 20.7346 20.1406 21.5806C21.47 25.7274 25.5676 28.2072 27.5953 28.8873C27.8814 28.9868 28.3526 28.9868 28.6386 28.8873C30.6664 28.2072 34.7639 25.7274 36.0933 21.5806C36.371 20.7346 36.5308 19.8223 36.5308 18.8354C36.5308 16.2726 34.4358 14.1992 31.8527 14.1992Z" fill="#AEA9A1"/>
<defs>
<filter id="filter0_ddd_1003_1186" x="0" y="0" width="56" height="64" filterUnits="userSpaceOnUse" color-interpolation-filters="sRGB">
<feFlood flood-opacity="0" result="BackgroundImageFix"/>
<feColorMatrix in="SourceAlpha" type="matrix" values="0 0 0 0 0 0 0 0 0 0 0 0 0 0 0 0 0 0 127 0" result="hardAlpha"/>
<feOffset dy="2"/>
<feGaussianBlur stdDeviation="2"/>
<feColorMatrix type="matrix" values="0 0 0 0 0.0431373 0 0 0 0 0.00784314 0 0 0 0 0.196078 0 0 0 0.03 0"/>
<feBlend mode="normal" in2="BackgroundImageFix" result="effect1_dropShadow_1003_1186"/>
<feColorMatrix in="SourceAlpha" type="matrix" values="0 0 0 0 0 0 0 0 0 0 0 0 0 0 0 0 0 0 127 0" result="hardAlpha"/>
<feOffset dy="7"/>
<feGaussianBlur stdDeviation="3.5"/>
<feColorMatrix type="matrix" values="0 0 0 0 0.0431373 0 0 0 0 0.00784314 0 0 0 0 0.196078 0 0 0 0.03 0"/>
<feBlend mode="normal" in2="effect1_dropShadow_1003_1186" result="effect2_dropShadow_1003_1186"/>
<feColorMatrix in="SourceAlpha" type="matrix" values="0 0 0 0 0 0 0 0 0 0 0 0 0 0 0 0 0 0 127 0" result="hardAlpha"/>
<feOffset dy="15"/>
<feGaussianBlur stdDeviation="4.5"/>
<feColorMatrix type="matrix" values="0 0 0 0 0.0431373 0 0 0 0 0.00784314 0 0 0 0 0.196078 0 0 0 0.02 0"/>
<feBlend mode="normal" in2="effect2_dropShadow_1003_1186" result="effect3_dropShadow_1003_1186"/>
<feBlend mode="normal" in="SourceGraphic" in2="effect3_dropShadow_1003_1186" result="shape"/>
</filter>
</defs>
</svg>
